# xmcd
#
# Track frame offsets:
#	150
#	16425
#	27982
#	40212
#	53050
#	67787
#	80062
#	97142
#	111012
#	122042
#	136092
#	146867
#
# Disc length: 2137 seconds
#
# Revision: 1
# Processed by: cddbd v1.5.2PL0 Copyright (c) Steve Scherf et al.
# Submitted via: audiograbber 1.80
#
DISCID=a408570c
DTITLE=Matz Bladhs - Livets stora gåta
DYEAR=1900
DGENRE=
TTITLE0=Livets stora gåta
TTITLE1=En liten röd bukett
TTITLE2=Tror du att jag förlorad är
TTITLE3=Ett litet minne
TTITLE4=Nu vet jag vad kärlek är
TTITLE5=I en gul luftballong
TTITLE6=Klockorna skall ringa
TTITLE7=När lindarna blommar
TTITLE8=Röda rosor, vita lögner
TTITLE9=Det kan aldrig bli som förr igen
TTITLE10=Du har gjort min gråa värld till guld igen
TTITLE11=Jag ska älska dig
EXTD=Dance hall
EXTT0=
EXTT1=
EXTT2=
EXTT3=
EXTT4=
EXTT5=
EXTT6=
EXTT7=
EXTT8=
EXTT9=
EXTT10=
EXTT11=
PLAYORDER=
